<svg xmlns="http://www.w3.org/2000/svg" version="1.1" xmlns:xlink="http://www.w3.org/1999/xlink" xmlns:svgjs="http://svgjs.dev/svgjs" width="1500" height="1500" viewBox="0 0 1500 1500"><rect width="1500" height="1500" fill="#ffffff"></rect><g transform="matrix(0.6666666666666666,0,0,0.6666666666666666,249.39393939393938,641.5665969035781)"><svg viewBox="0 0 396 86" data-background-color="#ffffff" preserveAspectRatio="xMidYMid meet" height="325" width="1500" xmlns="http://www.w3.org/2000/svg" xmlns:xlink="http://www.w3.org/1999/xlink"><g id="tight-bounds" transform="matrix(1,0,0,1,0.2400000000000091,0.039719998272062185)"><svg viewBox="0 0 395.52 85.92056000345585" height="85.92056000345585" width="395.52"><g><svg viewBox="0 0 651.0514290681377 141.43078321345217" height="85.92056000345585" width="395.52"><g transform="matrix(1,0,0,1,0,19.546512007069005)"><svg viewBox="0 0 395.52 102.33775919931416" height="102.33775919931416" width="395.52"><g id="textblocktransform"><svg viewBox="0 0 395.52 102.33775919931416" height="102.33775919931416" width="395.52" id="textblock"><g><svg viewBox="0 0 395.52 70.82254765814916" height="70.82254765814916" width="395.52"><g transform="matrix(1,0,0,1,0,0)"><svg width="395.52" viewBox="0.3 -37.5 212.19701361097998 38" height="70.82254765814916" data-palette-color="#085f63"><path d="M13.05-34.2L19.85-18.55 26.95-34.2 21.9-34.2 21.9-35 31.75-35 31.75-34.2 28.45-34.2 20.9-17.5 20.9-0.95 23.95-0.95 23.95 0 8.1 0 8.1-0.95 11.15-0.95 11.15-16.55 2.65-34.2 0.3-34.2 0.3-35 16.3-35 16.3-34.2 13.05-34.2ZM43.95-9.85L43.95-9.85 43.95-14.1Q43.95-18.95 43.42-21.18 42.9-23.4 41-23.4L41-23.4Q39.9-23.4 39.22-22.78 38.55-22.15 38.25-20.7L38.25-20.7Q37.8-18.45 37.8-13.85L37.8-13.85 37.8-9.95Q37.8-4.5 38.12-3.4 38.45-2.3 38.8-1.6L38.8-1.6Q39.35-0.4 40.95-0.4L40.95-0.4Q42.9-0.4 43.5-2.65L43.5-2.65Q43.95-4.25 43.95-9.85ZM40.85 0.5Q34.6 0.5 31.4-2.7 28.2-5.9 28.2-11.88 28.2-17.85 31.62-21.08 35.05-24.3 41.25-24.3 47.45-24.3 50.5-21.33 53.55-18.35 53.55-12.25L53.55-12.25Q53.55 0.5 40.85 0.5L40.85 0.5ZM84.2-0.9L84.2 0 72.8 0 72.25-3.65Q71.45-1.65 69.87-0.58 68.3 0.5 65.2 0.5L65.2 0.5Q57.45 0.5 57.45-7.85L57.45-7.85 57.45-22.9 54.65-22.9 54.65-23.8 66.75-23.8 66.75-6.65Q66.75-3.65 67.17-2.7 67.6-1.75 68.87-1.75 70.15-1.75 71.15-3.3 72.15-4.85 72.15-7.6L72.15-7.6 72.15-22.9 69.85-22.9 69.85-23.8 81.45-23.8 81.45-0.9 84.2-0.9ZM101.89-22.4L101.89-22.4Q100.04-22.4 98.64-20 97.24-17.6 97.24-14.3L97.24-14.3 97.24-0.9 100.79-0.9 100.79 0 85.19 0 85.19-0.9 87.94-0.9 87.94-22.9 85.19-22.9 85.19-23.8 97.24-23.8 97.24-19Q97.89-21.55 99.74-22.93 101.59-24.3 103.94-24.3 106.29-24.3 107.77-22.98 109.24-21.65 109.24-19.23 109.24-16.8 108.14-15.5 107.04-14.2 104.77-14.2 102.49-14.2 101.42-15.7 100.34-17.2 101.14-19.85L101.14-19.85 102.94-19.85Q104.19-22.4 101.89-22.4ZM110.49-34.05L110.49-35 125.44-35Q132.39-35 135.87-33.13 139.34-31.25 139.34-26.8L139.34-26.8Q139.34-19.95 131.09-18.6L131.09-18.6 131.09-18.5Q141.09-17.25 141.09-9.8L141.09-9.8Q141.09-4.35 136.99-2.18 132.89 0 125.19 0L125.19 0 110.49 0 110.49-0.95 113.74-0.95 113.74-34.05 110.49-34.05ZM124.64-17.7L123.49-17.7 123.49-0.95 125.84-0.95Q128.59-0.95 129.69-2.85 130.79-4.75 130.79-8.45L130.79-8.45 130.79-11.1Q130.79-14.4 129.44-16.05 128.09-17.7 124.64-17.7L124.64-17.7ZM125.09-34.05L123.49-34.05 123.49-18.65 124.79-18.65Q127.39-18.65 128.42-20.23 129.44-21.8 129.44-25.05L129.44-25.05 129.44-27.4Q129.44-31.1 128.54-32.58 127.64-34.05 125.09-34.05L125.09-34.05ZM150.24-27.25Q147.59-27.25 146.46-28.6 145.34-29.95 145.34-31.95 145.34-33.95 146.56-35.25 147.79-36.55 150.29-36.55 152.79-36.55 154.09-35.38 155.39-34.2 155.39-32.02 155.39-29.85 154.14-28.55 152.89-27.25 150.24-27.25ZM142.69-22.9L142.69-23.8 154.94-23.8 154.94-0.9 157.74-0.9 157.74 0 142.89 0 142.89-0.9 145.64-0.9 145.64-22.9 142.69-22.9ZM188.99 0L175.09 0 175.09-0.9 177.39-0.9 171.74-12.5 170.79-12.25 170.79-0.9 173.09-0.9 173.09 0 158.74 0 158.74-0.9 161.49-0.9 161.49-36.6 158.54-36.6 158.54-37.5 170.79-37.5 170.79-13.25 171.59-13.55 182.84-22.9 178.14-22.9 178.14-23.8 187.99-23.8 187.99-22.9 184.49-22.9 178.54-17.85 187.19-0.9 188.99-0.9 188.99 0ZM201.63 0.5Q195.18 0.5 191.96-2.83 188.73-6.15 188.73-12.08 188.73-18 192.36-21.15 195.98-24.3 201.58-24.3L201.58-24.3Q212.93-24.3 212.48-12.9L212.48-12.9 198.38-12.9 198.38-10.95Q198.38-6.05 199.63-3.55 200.88-1.05 203.98-1.05L203.98-1.05Q209.78-1.05 211.58-7.25L211.58-7.25 212.48-7.1Q211.53-3.5 209.06-1.5 206.58 0.5 201.63 0.5L201.63 0.5ZM198.43-16.35L198.43-13.9 203.58-13.9 203.58-16.35Q203.58-20.4 203.11-21.88 202.63-23.35 201.21-23.35 199.78-23.35 199.11-21.78 198.43-20.2 198.43-16.35L198.43-16.35Z" opacity="1" transform="matrix(1,0,0,1,0,0)" fill="#085f63" class="wordmark-text-0" data-fill-palette-color="primary" id="text-0"></path></svg></g></svg></g><g transform="matrix(1,0,0,1,163.310208,87.54205141909438)"><svg viewBox="0 0 232.209792 14.79570778021978" height="14.79570778021978" width="232.209792"><g transform="matrix(1,0,0,1,0,0)"><svg width="232.209792" viewBox="1.95 -31.74 506.49 32.28" height="14.79570778021978" data-palette-color="#49beb7"><path d="M1.95 0L23.34 0 23.58-9.77 22.61-9.77 21.78-6.49Q20.61-2 17.87-1.37L17.87-1.37Q17.29-1.27 16.75-1.27L16.75-1.27 10.06-1.27 10.06-28.03 14.16-28.03 14.16-29.3 1.95-29.3 1.95-28.03 5.86-28.03 5.86-1.27 1.95-1.27 1.95 0ZM35.54-1.22L35.54-1.22 33.1-1.22 33.1-20.75 25.53-20.75 25.53-19.53 29.44-19.53 29.44-4.15Q29.44-1.9 27.93-1.42L27.93-1.42Q27.19-1.22 25.53-1.22L25.53-1.22 25.53 0 36.77 0Q36.77-1.07 36.03-1.17L36.03-1.17Q35.79-1.22 35.54-1.22ZM33.69-27.88L33.69-27.88Q33.69-29.59 32.18-30.32L32.18-30.32Q31.59-30.57 31.05-30.57L31.05-30.57Q29.34-30.57 28.61-29L28.61-29Q28.37-28.47 28.37-27.88L28.37-27.88Q28.37-26.07 29.98-25.39L29.98-25.39Q30.52-25.2 31.05-25.2L31.05-25.2Q32.76-25.2 33.44-26.76L33.44-26.76Q33.69-27.29 33.69-27.88ZM44.43-19.53L47.85-19.53 47.85-20.75 38.37-20.75 38.37-19.53 40.57-19.53 46.53-3.17Q47.5-0.44 48.68 0L48.68 0Q49.26 0.24 50.14 0.24L50.14 0.24 50.78 0.24 57.66-17.82Q58.25-19.34 59.08-19.48L59.08-19.48Q59.32-19.53 59.52-19.53L59.52-19.53Q60.59-19.53 60.69-20.26L60.69-20.26Q60.74-20.51 60.74-20.75L60.74-20.75 53.22-20.75 53.22-19.53 56.88-19.53 50.68-2.88 44.43-19.53ZM73.04-20.02L73.04-20.02Q76.46-20.02 77.58-17.14L77.58-17.14Q77.97-16.21 77.97-15.14L77.97-15.14Q77.97-12.7 75.63-12.16L75.63-12.16Q74.41-11.91 72.16-11.96L72.16-11.96 66.98-12.11Q67.23-17.72 70.65-19.43L70.65-19.43Q71.77-20.02 73.04-20.02ZM81.54-4.69L81.54-4.69 80.31-5.13Q78.61-1.42 74.8-0.93L74.8-0.93Q74.31-0.88 73.87-0.88L73.87-0.88Q68.74-0.88 67.42-6.98L67.42-6.98Q67.03-8.69 66.98-10.74L66.98-10.74 72.84-10.64Q78.8-10.55 80.51-11.77L80.51-11.77Q81.83-12.74 81.83-14.55L81.83-14.55Q81.83-17.87 78.46-19.82L78.46-19.82Q76.07-21.24 72.94-21.24L72.94-21.24Q66.84-21.24 64.2-16.16L64.2-16.16Q62.83-13.53 62.83-10.21L62.83-10.21Q62.83-4.15 67.18-1.22L67.18-1.22Q69.77 0.49 73.09 0.49L73.09 0.49Q78.36 0.49 80.85-3.32L80.85-3.32Q81.24-4 81.54-4.69ZM117.76-22.66L117.76-22.66Q117.76-26.37 114.25-28.17L114.25-28.17Q111.95-29.3 108.73-29.3L108.73-29.3 95.01-29.3 95.01-28.03 98.91-28.03 98.91-1.27 95.01-1.27 95.01 0 108.87 0Q115.17 0 118.1-4L118.1-4Q119.62-6.1 119.62-8.59L119.62-8.59Q119.62-12.5 116.15-14.65L116.15-14.65Q114.54-15.58 112.44-15.97L112.44-15.97Q115.95-17.29 117.27-20.41L117.27-20.41Q117.76-21.58 117.76-22.66ZM103.11-28.03L107.56-28.03Q112.59-28.03 113.27-23.58L113.27-23.58Q113.37-22.95 113.37-22.27L113.37-22.27Q113.37-19.09 110.88-17.48L110.88-17.48Q109.41-16.55 107.46-16.55L107.46-16.55 103.11-16.55 103.11-28.03ZM103.11-15.23L108.39-15.23Q112.83-15.23 114.34-11.47L114.34-11.47Q114.93-10.11 114.93-8.5L114.93-8.5Q114.93-4.74 112.49-2.64L112.49-2.64Q110.88-1.27 108.63-1.27L108.63-1.27 103.11-1.27 103.11-15.23ZM133.29-1.22L133.29-1.22 130.84-1.22 130.84-20.75 123.28-20.75 123.28-19.53 127.18-19.53 127.18-4.15Q127.18-1.9 125.67-1.42L125.67-1.42Q124.94-1.22 123.28-1.22L123.28-1.22 123.28 0 134.51 0Q134.51-1.07 133.77-1.17L133.77-1.17Q133.53-1.22 133.29-1.22ZM131.43-27.88L131.43-27.88Q131.43-29.59 129.92-30.32L129.92-30.32Q129.33-30.57 128.79-30.57L128.79-30.57Q127.08-30.57 126.35-29L126.35-29Q126.11-28.47 126.11-27.88L126.11-27.88Q126.11-26.07 127.72-25.39L127.72-25.39Q128.26-25.2 128.79-25.2L128.79-25.2Q130.5-25.2 131.19-26.76L131.19-26.76Q131.43-27.29 131.43-27.88ZM147-1.22L147-1.22 144.81-1.22 144.81-8.45 147.49-10.94 154.38 0 160.87 0Q160.87-1.07 160.14-1.17L160.14-1.17Q159.94-1.22 159.65-1.22L159.65-1.22 157.89-1.22 150.03-13.33 154.62-17.63Q156.33-19.24 157.21-19.43L157.21-19.43Q157.6-19.53 158.09-19.53L158.09-19.53Q159.16-19.53 159.26-20.26L159.26-20.26Q159.31-20.51 159.31-20.75L159.31-20.75 151.01-20.75 151.01-19.53 154.67-19.53 144.81-10.4 144.81-31.74 137.48-31.74 137.48-30.52 141.14-30.52 141.14-4.15Q141.14-1.9 139.88-1.46L139.88-1.46Q139.14-1.22 137.48-1.22L137.48-1.22 137.48 0 148.22 0Q148.22-1.07 147.49-1.17L147.49-1.17Q147.3-1.22 147-1.22ZM172.54-20.02L172.54-20.02Q175.96-20.02 177.08-17.14L177.08-17.14Q177.47-16.21 177.47-15.14L177.47-15.14Q177.47-12.7 175.13-12.16L175.13-12.16Q173.91-11.91 171.66-11.96L171.66-11.96 166.48-12.11Q166.73-17.72 170.15-19.43L170.15-19.43Q171.27-20.02 172.54-20.02ZM181.03-4.69L181.03-4.69 179.81-5.13Q178.11-1.42 174.3-0.93L174.3-0.93Q173.81-0.88 173.37-0.88L173.37-0.88Q168.24-0.88 166.92-6.98L166.92-6.98Q166.53-8.69 166.48-10.74L166.48-10.74 172.34-10.64Q178.3-10.55 180.01-11.77L180.01-11.77Q181.33-12.74 181.33-14.55L181.33-14.55Q181.33-17.87 177.96-19.82L177.96-19.82Q175.57-21.24 172.44-21.24L172.44-21.24Q166.34-21.24 163.7-16.16L163.7-16.16Q162.33-13.53 162.33-10.21L162.33-10.21Q162.33-4.15 166.68-1.22L166.68-1.22Q169.27 0.49 172.59 0.49L172.59 0.49Q177.86 0.49 180.35-3.32L180.35-3.32Q180.74-4 181.03-4.69ZM216.28-7.67L216.28-7.67Q216.28-12.01 211.6-14.65L211.6-14.65Q210.67-15.14 205.88-17.24L205.88-17.24Q201.54-19.09 200.41-21.04L200.41-21.04Q199.83-22.12 199.83-23.34L199.83-23.34Q199.83-26.61 203-27.88L203-27.88Q204.37-28.42 206.03-28.42L206.03-28.42Q210.13-28.42 212.28-25.63L212.28-25.63Q213.7-23.73 213.65-21L213.65-21 215.11-21 215.11-29.54Q213.94-29.54 213.74-28.81L213.74-28.81Q213.65-28.47 213.65-27.88L213.65-27.88Q210.18-29.79 205.83-29.79L205.83-29.79Q200.56-29.79 197.63-26.86L197.63-26.86Q195.68-24.8 195.68-22.07L195.68-22.07Q195.68-17.97 200.27-15.38L200.27-15.38Q201.1-14.94 205.83-12.89L205.83-12.89Q210.23-10.94 211.4-8.94L211.4-8.94Q212.04-7.81 212.04-6.49L212.04-6.49Q212.04-3.08 208.72-1.56L208.72-1.56Q207.15-0.88 205.25-0.88L205.25-0.88Q197.78-0.98 196.95-10.01L196.95-10.01 195.48-10.01 195.48 0.1Q196.65 0.1 196.85-0.59L196.85-0.59Q196.95-0.98 196.95-2L196.95-2Q200.71 0.49 205.49 0.49L205.49 0.49Q211.11 0.49 214.18-2.54L214.18-2.54Q216.28-4.69 216.28-7.67ZM219.7-20.75L219.7-19.53 223.12-19.53 223.12-5.76Q223.46 0.34 228.73 0.54L228.73 0.54Q233.22 0.54 234.35-4.98L234.35-4.98Q234.35-5.03 234.35-5.08L234.35-5.08 233.03-5.32Q231.81-1.27 229.46-0.93L229.46-0.93Q226.83-1.03 226.78-4.69L226.78-4.69 226.78-19.53 234.35-19.53 234.35-20.75 226.78-20.75 226.78-26.42 223.12-25.39 223.12-20.75 219.7-20.75ZM253.68 0.49L253.68 0.49Q257.44 0.49 257.83-4.05L257.83-4.05Q257.88-4.35 257.88-4.59L257.88-4.59 256.61-4.64Q256.27-1.07 254.71-1.03L254.71-1.03Q253.44-1.12 253.39-3.56L253.39-3.56 253.39-13.87Q253.39-20.85 246.41-21.24L246.41-21.24Q245.97-21.24 245.53-21.24L245.53-21.24Q240.06-21.24 238.2-18.7L238.2-18.7Q237.62-17.87 237.62-17.04L237.62-17.04Q237.62-15.53 239.03-15.28L239.03-15.28Q239.28-15.23 239.52-15.23L239.52-15.23Q240.64-15.23 241.18-16.65L241.18-16.65Q241.86-18.46 242.11-18.8L242.11-18.8Q243.04-20.02 244.99-20.02L244.99-20.02Q249.58-19.73 249.73-14.99L249.73-14.99 249.73-11.91Q238.25-11.91 236.59-7.13L236.59-7.13Q236.3-6.2 236.3-5.13L236.3-5.13Q236.3-1.42 239.57-0.05L239.57-0.05Q240.89 0.49 242.35 0.49L242.35 0.49Q245.92 0.49 248.36-1.95L248.36-1.95Q249.24-2.88 249.68-3.91L249.68-3.91Q250.26 0.44 253.68 0.49ZM243.96-1.46L243.96-1.46Q240.99-1.46 240.3-4.44L240.3-4.44Q240.16-5.13 240.16-5.96L240.16-5.96Q240.16-9.23 243.92-10.11L243.92-10.11Q245.92-10.55 249.73-10.6L249.73-10.6 249.73-6.69Q248.99-3.32 246.16-1.95L246.16-1.95Q245.04-1.46 243.96-1.46ZM259.1-20.75L259.1-19.53 262.52-19.53 262.52-5.76Q262.86 0.34 268.13 0.54L268.13 0.54Q272.62 0.54 273.75-4.98L273.75-4.98Q273.75-5.03 273.75-5.08L273.75-5.08 272.43-5.32Q271.21-1.27 268.86-0.93L268.86-0.93Q266.23-1.03 266.18-4.69L266.18-4.69 266.18-19.53 273.75-19.53 273.75-20.75 266.18-20.75 266.18-26.42 262.52-25.39 262.52-20.75 259.1-20.75ZM285.46-1.22L285.46-1.22 283.02-1.22 283.02-20.75 275.45-20.75 275.45-19.53 279.36-19.53 279.36-4.15Q279.36-1.9 277.85-1.42L277.85-1.42Q277.11-1.22 275.45-1.22L275.45-1.22 275.45 0 286.68 0Q286.68-1.07 285.95-1.17L285.95-1.17Q285.71-1.22 285.46-1.22ZM283.61-27.88L283.61-27.88Q283.61-29.59 282.09-30.32L282.09-30.32Q281.51-30.57 280.97-30.57L280.97-30.57Q279.26-30.57 278.53-29L278.53-29Q278.29-28.47 278.29-27.88L278.29-27.88Q278.29-26.07 279.9-25.39L279.9-25.39Q280.43-25.2 280.97-25.2L280.97-25.2Q282.68-25.2 283.36-26.76L283.36-26.76Q283.61-27.29 283.61-27.88ZM294.25-10.4L294.25-10.4Q294.25-17.97 298.4-19.63L298.4-19.63Q299.47-20.02 300.65-20.02L300.65-20.02Q306.07-20.02 306.94-13.18L306.94-13.18Q307.09-12.01 307.09-10.6L307.09-10.6Q307.09-2.39 302.6-0.98L302.6-0.98Q301.72-0.73 300.79-0.73L300.79-0.73Q295.86-0.73 294.59-6.59L294.59-6.59Q294.25-8.3 294.25-10.4ZM300.79-21.24L300.79-21.24Q296.11-21.24 292.98-18.02L292.98-18.02Q290.1-15.04 290.1-10.6L290.1-10.6Q290.1-4.44 294.59-1.37L294.59-1.37Q297.33 0.49 300.65 0.49L300.65 0.49Q305.33 0.49 308.41-2.83L308.41-2.83Q311.24-5.86 311.24-10.4L311.24-10.4Q311.24-16.55 306.7-19.53L306.7-19.53Q304.02-21.24 300.79-21.24ZM324.18-1.22L324.18-1.22 321.98-1.22 321.98-11.77Q322.13-16.31 325.2-18.31L325.2-18.31Q326.52-19.14 327.89-19.14L327.89-19.14Q330.87-19.14 331.94-16.36L331.94-16.36Q332.38-15.23 332.38-13.82L332.38-13.82 332.38-4.15Q332.38-1.9 331.11-1.46L331.11-1.46Q330.38-1.22 328.72-1.22L328.72-1.22 328.72 0 339.71 0Q339.71-1.07 338.97-1.17L338.97-1.17Q338.78-1.22 338.49-1.22L338.49-1.22 336.04-1.22 336.04-13.33Q336.04-18.21 332.67-20.31L332.67-20.31Q331.11-21.24 329.31-21.24L329.31-21.24Q325.69-21.24 323.35-18.36L323.35-18.36Q322.47-17.24 321.93-15.87L321.93-15.87 321.74-20.75 314.66-20.75 314.66-19.53 318.32-19.53 318.32-4.15Q318.32-1.9 317.05-1.46L317.05-1.46Q316.32-1.22 314.66-1.22L314.66-1.22 314.66 0 325.4 0Q325.4-1.07 324.67-1.17L324.67-1.17Q324.47-1.22 324.18-1.22ZM357.62 0L371.05 0Q371.05-1.07 370.27-1.22L370.27-1.22Q370.02-1.27 369.78-1.27L369.78-1.27 366.46-1.27 366.46-28.03 369.29-28.03Q373.25-28.03 374.56-23.24L374.56-23.24Q374.56-23.05 374.61-22.95L374.61-22.95 375.39-19.68 376.76-19.68 376.52-29.3 352.4-29.3 352.15-19.68 353.52-19.68 354.3-22.95Q355.86-27.73 359.62-28.03L359.62-28.03 362.26-28.03 362.26-1.27 357.62-1.27 357.62 0ZM390.87-1.22L390.87-1.22 387.35-1.22 387.35-10.94Q387.35-15.38 390.09-18.07L390.09-18.07Q391.16-19.09 391.9-19.14L391.9-19.14Q392.73-19.14 393.41-17.92L393.41-17.92Q394.19-16.55 394.87-16.36L394.87-16.36Q395.17-16.26 395.46-16.26L395.46-16.26Q396.93-16.26 397.32-17.68L397.32-17.68Q397.41-17.97 397.41-18.26L397.41-18.26Q397.41-20.46 395.17-20.95L395.17-20.95Q394.68-21.04 394.24-21.04L394.24-21.04Q391.31-21.04 389.02-18.55L389.02-18.55Q387.94-17.38 387.31-15.92L387.31-15.92 387.11-20.75 380.03-20.75 380.03-19.53 383.69-19.53 383.69-4.15Q383.69-1.9 382.42-1.46L382.42-1.46Q381.69-1.22 380.03-1.22L380.03-1.22 380.03 0 392.09 0Q392.09-1.07 391.36-1.17L391.36-1.17Q391.16-1.22 390.87-1.22ZM416.75 0.49L416.75 0.49Q420.51 0.49 420.9-4.05L420.9-4.05Q420.95-4.35 420.95-4.59L420.95-4.59 419.68-4.64Q419.33-1.07 417.77-1.03L417.77-1.03Q416.5-1.12 416.45-3.56L416.45-3.56 416.45-13.87Q416.45-20.85 409.47-21.24L409.47-21.24Q409.03-21.24 408.59-21.24L408.59-21.24Q403.12-21.24 401.27-18.7L401.27-18.7Q400.68-17.87 400.68-17.04L400.68-17.04Q400.68-15.53 402.1-15.28L402.1-15.28Q402.34-15.23 402.59-15.23L402.59-15.23Q403.71-15.23 404.25-16.65L404.25-16.65Q404.93-18.46 405.17-18.8L405.17-18.8Q406.1-20.02 408.06-20.02L408.06-20.02Q412.65-19.73 412.79-14.99L412.79-14.99 412.79-11.91Q401.32-11.91 399.66-7.13L399.66-7.13Q399.36-6.2 399.36-5.13L399.36-5.13Q399.36-1.42 402.64-0.05L402.64-0.05Q403.95 0.49 405.42 0.49L405.42 0.49Q408.98 0.49 411.42-1.95L411.42-1.95Q412.3-2.88 412.74-3.91L412.74-3.91Q413.33 0.44 416.75 0.49ZM407.03-1.46L407.03-1.46Q404.05-1.46 403.37-4.44L403.37-4.44Q403.22-5.13 403.22-5.96L403.22-5.96Q403.22-9.23 406.98-10.11L406.98-10.11Q408.98-10.55 412.79-10.6L412.79-10.6 412.79-6.69Q412.06-3.32 409.23-1.95L409.23-1.95Q408.1-1.46 407.03-1.46ZM423.14-10.16L423.14-10.16Q423.14-4.25 427.49-1.32L427.49-1.32Q430.17 0.49 433.59 0.49L433.59 0.49Q438.67 0.49 441.26-3.08L441.26-3.08Q441.84-3.91 442.18-4.74L442.18-4.74 440.91-5.18Q439.11-1.32 434.96-0.93L434.96-0.93Q434.57-0.88 434.18-0.88L434.18-0.88Q430.71-0.88 428.76-4.35L428.76-4.35Q427.29-6.98 427.29-10.6L427.29-10.6Q427.29-16.99 430.66-19.14L430.66-19.14Q432.08-20.02 433.79-20.02L433.79-20.02Q436.42-20.02 436.96-17.97L436.96-17.97Q437.06-17.58 437.2-16.75L437.2-16.75Q437.5-14.79 438.28-14.31L438.28-14.31Q438.77-14.06 439.35-14.01L439.35-14.01Q441.01-13.92 441.45-15.38L441.45-15.38Q441.55-15.72 441.55-16.02L441.55-16.02Q441.55-18.51 438.38-20.12L438.38-20.12Q436.13-21.24 433.49-21.24L433.49-21.24Q426.95-21.24 424.36-15.92L424.36-15.92Q423.14-13.38 423.14-10.16ZM453.46-1.22L453.46-1.22 451.26-1.22 451.26-8.45 453.95-10.94 460.83 0 467.33 0Q467.33-1.07 466.6-1.17L466.6-1.17Q466.4-1.22 466.11-1.22L466.11-1.22 464.35-1.22 456.49-13.33 461.08-17.63Q462.79-19.24 463.67-19.43L463.67-19.43Q464.06-19.53 464.54-19.53L464.54-19.53Q465.62-19.53 465.72-20.26L465.72-20.26Q465.77-20.51 465.77-20.75L465.77-20.75 457.46-20.75 457.46-19.53 461.13-19.53 451.26-10.4 451.26-31.74 443.94-31.74 443.94-30.52 447.6-30.52 447.6-4.15Q447.6-1.9 446.33-1.46L446.33-1.46Q445.6-1.22 443.94-1.22L443.94-1.22 443.94 0 454.68 0Q454.68-1.07 453.95-1.17L453.95-1.17Q453.75-1.22 453.46-1.22ZM479-20.02L479-20.02Q482.41-20.02 483.54-17.14L483.54-17.14Q483.93-16.21 483.93-15.14L483.93-15.14Q483.93-12.7 481.58-12.16L481.58-12.16Q480.36-11.91 478.12-11.96L478.12-11.96 472.94-12.11Q473.18-17.72 476.6-19.43L476.6-19.43Q477.73-20.02 479-20.02ZM487.49-4.69L487.49-4.69 486.27-5.13Q484.56-1.42 480.75-0.93L480.75-0.93Q480.26-0.88 479.83-0.88L479.83-0.88Q474.7-0.88 473.38-6.98L473.38-6.98Q472.99-8.69 472.94-10.74L472.94-10.74 478.8-10.64Q484.76-10.55 486.47-11.77L486.47-11.77Q487.78-12.74 487.78-14.55L487.78-14.55Q487.78-17.87 484.42-19.82L484.42-19.82Q482.02-21.24 478.9-21.24L478.9-21.24Q472.79-21.24 470.16-16.16L470.16-16.16Q468.79-13.53 468.79-10.21L468.79-10.21Q468.79-4.15 473.14-1.22L473.14-1.22Q475.72 0.49 479.04 0.49L479.04 0.49Q484.32 0.49 486.81-3.32L486.81-3.32Q487.2-4 487.49-4.69ZM501.89-1.22L501.89-1.22 498.38-1.22 498.38-10.94Q498.38-15.38 501.11-18.07L501.11-18.07Q502.19-19.09 502.92-19.14L502.92-19.14Q503.75-19.14 504.43-17.92L504.43-17.92Q505.21-16.55 505.9-16.36L505.9-16.36Q506.19-16.26 506.48-16.26L506.48-16.26Q507.95-16.26 508.34-17.68L508.34-17.68Q508.44-17.97 508.44-18.26L508.44-18.26Q508.44-20.46 506.19-20.95L506.19-20.95Q505.7-21.04 505.26-21.04L505.26-21.04Q502.33-21.04 500.04-18.55L500.04-18.55Q498.96-17.38 498.33-15.92L498.33-15.92 498.13-20.75 491.05-20.75 491.05-19.53 494.72-19.53 494.72-4.15Q494.72-1.9 493.45-1.46L493.45-1.46Q492.71-1.22 491.05-1.22L491.05-1.22 491.05 0 503.11 0Q503.11-1.07 502.38-1.17L502.38-1.17Q502.19-1.22 501.89-1.22Z" opacity="1" transform="matrix(1,0,0,1,0,0)" fill="#49beb7" class="slogan-text-1" data-fill-palette-color="secondary" id="text-1"></path></svg></g></svg></g></svg></g></svg></g><g transform="matrix(1,0,0,1,412.2395037609452,0)"><svg viewBox="0 0 238.81192530719255 141.43078321345217" height="141.43078321345217" width="238.81192530719255"><g><svg xmlns="http://www.w3.org/2000/svg" xmlns:xlink="http://www.w3.org/1999/xlink" version="1.1" x="0" y="0" viewBox="5 23.349602740368972 90 53.30039725963103" enable-background="new 0 0 100 100" xml:space="preserve" height="141.43078321345217" width="238.81192530719255" class="icon-icon-0" data-fill-palette-color="accent" id="icon-0"><path d="M76.778 76.65c-10.049 0-18.223-8.178-18.223-18.225s8.174-18.223 18.223-18.223S95 48.379 95 58.426 86.827 76.65 76.778 76.65zM76.778 42.486c-8.789 0-15.939 7.15-15.939 15.939s7.15 15.939 15.939 15.939 15.938-7.15 15.938-15.939S85.567 42.486 76.778 42.486z" fill="#49beb7" data-fill-palette-color="accent"></path><path d="M23.224 76.65C13.174 76.65 5 68.473 5 58.426s8.174-18.223 18.224-18.223c10.048 0 18.223 8.176 18.223 18.223S33.271 76.65 23.224 76.65zM23.224 42.486c-8.789 0-15.939 7.15-15.939 15.939s7.15 15.939 15.939 15.939 15.938-7.15 15.938-15.939S32.013 42.486 23.224 42.486z" fill="#49beb7" data-fill-palette-color="accent"></path><path d="M46.152 59.668l-23.662-1.98 14.507-27.936 4.658 14.262 27.97-12.84 1.646 4.988L46.152 59.668zM24.894 56.359l20.711 1.734 23.916-22.379-0.807-2.447L40.739 46.109l-4.062-12.436L24.894 56.359z" fill="#49beb7" data-fill-palette-color="accent"></path><rect x="23.245" y="41.879" transform="matrix(0.2997 0.954 -0.954 0.2997 68.8822 -8.5563)" width="34.049" height="1.522" fill="#49beb7" data-fill-palette-color="accent"></rect><rect x="54.54" y="39.533" transform="matrix(0.2928 0.9562 -0.9562 0.2928 89.3514 -40.2149)" width="34.643" height="1.524" fill="#49beb7" data-fill-palette-color="accent"></rect><path d="M45.488 62.152c-1.88 0-3.409-1.531-3.409-3.414 0-1.881 1.529-3.408 3.409-3.408 1.881 0 3.411 1.527 3.411 3.408C48.899 60.621 47.369 62.152 45.488 62.152zM45.488 55.938c-1.543 0-2.8 1.256-2.8 2.801 0 1.547 1.257 2.805 2.8 2.805 1.546 0 2.802-1.258 2.802-2.805C48.29 57.193 47.034 55.938 45.488 55.938z" fill="#49beb7" data-fill-palette-color="accent"></path><circle cx="23.214" cy="57.473" r="2.7" fill="#49beb7" data-fill-palette-color="accent"></circle><path d="M79.533 57.473c0 1.469-1.19 2.66-2.659 2.66-1.466 0-2.655-1.191-2.655-2.66 0-1.467 1.189-2.656 2.655-2.656C78.343 54.816 79.533 56.006 79.533 57.473z" fill="#49beb7" data-fill-palette-color="accent"></path><path d="M47.136 58.738c0 0.91-0.737 1.65-1.647 1.65-0.909 0-1.646-0.74-1.646-1.65 0-0.908 0.736-1.645 1.646-1.645C46.398 57.094 47.136 57.83 47.136 58.738z" fill="#49beb7" data-fill-palette-color="accent"></path><path d="M32.396 23.777c-3.283-0.15-3.146 3.398-2.365 4.65 0.783 1.252 2.034 0.781 4.535 0.156 2.502-0.627 7.914-0.492 8.132-0.469 0.474 0.053 1.411-0.158 1.411-1.098 0-0.936-2.171-1.578-3.029-1.719-1.5-0.24-2.918-0.195-6.043-0.639C34.081 24.523 33.163 23.816 32.396 23.777z" fill="#49beb7" data-fill-palette-color="accent"></path><rect x="23.524" y="55.458" transform="matrix(1 0.0012 -0.0012 1 0.067 -0.0409)" width="21.147" height="0.607" fill="#49beb7" data-fill-palette-color="accent"></rect><rect x="22.924" y="60.132" transform="matrix(0.9951 0.0986 -0.0986 0.9951 6.1212 -3.0075)" width="21.139" height="0.609" fill="#49beb7" data-fill-palette-color="accent"></rect><path d="M75.321 30.754c-1.124 0.492-2.165 0.541-2.213 0.543l-0.077-1.473c0.001 0 0.192-0.008 0.517-0.068 0.491-0.084 1.229-0.293 1.775-0.68 0.548-0.4 0.916-0.871 0.935-1.76-0.013-1.262-0.473-1.732-1.046-2.084-0.582-0.34-1.355-0.41-1.711-0.408-0.136-0.002-0.189 0.006-0.189 0.004L73.28 24.83l-6.957 0.088-0.504-1.527 7.39-0.033c0.044-0.004 0.151-0.01 0.302-0.008 0 0 1.472 0.064 2.429 0.6 0.963 0.52 1.829 1.666 1.794 3.379C77.73 29.205 76.43 30.295 75.321 30.754z" fill="#49beb7" data-fill-palette-color="accent"></path></svg></g></svg></g></svg></g><defs></defs></svg><rect width="395.52" height="85.92056000345585" fill="none" stroke="none" visibility="hidden"></rect></g></svg></g></svg>